<svg width="50" height="57" xmlns="http://www.w3.org/2000/svg"><g fill-rule="nonzero" fill="none"><path fill="#FFF" d="m25 0 25 14.141v28.288L25 56.57 0 42.429V14.141z"/><path d="m45.536 41.453-19.71 11.15v-8.682l12.281-6.757 7.43 4.29Zm1.35-1.22V16.919l-7.209 4.166v14.987l7.21 4.16Zm-42.5 1.22 19.71 11.15v-8.682l-12.287-6.757-7.423 4.29Zm-1.35-1.22V16.919l7.21 4.166v14.987l-7.21 4.16Zm.846-24.826L24.096 3.973v8.391L11.143 19.49l-.103.058-7.158-4.141Zm42.158 0L25.827 3.973v8.391l12.952 7.12.103.057 7.158-4.134Z" fill="#8ED6FB"/><path d="m24.096 41.944-12.12-6.666V22.08l12.12 6.996v12.868Zm1.73 0 12.12-6.66V22.08l-12.12 6.996v12.868ZM12.798 20.556l12.164-6.686 12.164 6.686-12.164 7.022-12.164-7.022Z" fill="#1C78C0"/></g></svg>